<?xml version="1.0" standalone="no"?>
<!DOCTYPE svg PUBLIC "-//W3C//DTD SVG 20010904//EN"
 "http://www.w3.org/TR/2001/REC-SVG-20010904/DTD/svg10.dtd">
<svg version="1.0" xmlns="http://www.w3.org/2000/svg"
 width="1984.000000pt" height="1984.000000pt" viewBox="0 0 1984.000000 1984.000000"
 preserveAspectRatio="xMidYMid meet">
<metadata>
Created by potrace 1.11, written by Peter Selinger 2001-2013
</metadata>
<g transform="translate(0.000000,1984.000000) scale(0.100000,-0.100000)"
fill="#000000" stroke="none">
<path d="M9555 18184 c-264 -14 -684 -56 -895 -90 -639 -102 -1179 -246 -1735
-462 -187 -73 -276 -111 -292 -123 -7 -6 -13 -9 -13 -6 0 6 -182 -75 -318
-142 -45 -23 -87 -41 -91 -41 -5 0 -11 -4 -13 -9 -1 -4 -41 -26 -88 -49 -141
-67 -412 -219 -418 -234 -2 -4 -8 -8 -14 -8 -12 0 -266 -157 -287 -178 -8 -8
-24 -18 -35 -23 -12 -5 -48 -29 -81 -54 -33 -25 -69 -49 -80 -54 -11 -5 -30
-19 -42 -30 -12 -12 -27 -21 -33 -21 -5 0 -10 -4 -10 -10 0 -5 -6 -10 -13 -10
-7 0 -27 -13 -45 -30 -18 -16 -36 -30 -40 -30 -10 0 -166 -122 -175 -137 -4
-7 -14 -13 -20 -13 -7 0 -36 -22 -65 -48 -29 -27 -54 -47 -55 -46 -4 4 -229
-187 -352 -299 -102 -93 -440 -429 -530 -527 -151 -164 -276 -312 -408 -480
-37 -47 -73 -92 -80 -100 -6 -8 -33 -44 -59 -80 -26 -36 -51 -69 -55 -75 -35
-42 -113 -157 -113 -165 0 -5 -4 -10 -8 -10 -5 0 -15 -12 -23 -27 -8 -16 -22
-37 -31 -47 -10 -10 -15 -23 -12 -28 3 -4 1 -8 -3 -8 -10 0 -83 -106 -83 -120
0 -6 -4 -10 -8 -10 -5 0 -14 -10 -20 -22 -6 -13 -23 -41 -37 -63 -14 -22 -28
-47 -32 -55 -3 -8 -9 -17 -13 -20 -11 -9 -110 -179 -110 -189 0 -5 -6 -16 -13
-23 -34 -34 -347 -649 -347 -681 0 -7 -4 -17 -9 -22 -34 -34 -249 -588 -338
-870 -120 -380 -248 -924 -296 -1265 -3 -19 -10 -69 -16 -110 -14 -99 -39
-316 -47 -410 -3 -41 -7 -91 -9 -110 -27 -258 -27 -1021 -1 -1280 3 -25 7 -74
11 -110 13 -148 17 -186 21 -210 2 -14 6 -45 9 -70 5 -40 17 -127 31 -230 7
-47 16 -99 35 -200 6 -30 12 -64 13 -75 3 -18 13 -71 22 -115 9 -48 36 -170
59 -265 15 -60 29 -118 31 -127 8 -36 14 -55 50 -183 20 -71 38 -139 41 -150
3 -11 8 -29 12 -40 5 -11 32 -94 62 -185 70 -217 157 -450 229 -615 5 -11 23
-53 40 -94 76 -176 262 -556 328 -667 16 -28 33 -61 37 -72 3 -12 11 -22 16
-22 5 0 9 -6 9 -13 0 -7 16 -36 35 -65 19 -29 35 -56 36 -60 2 -8 23 -43 56
-93 12 -19 23 -39 23 -43 0 -4 11 -22 25 -40 14 -18 25 -36 25 -39 0 -4 -208
-7 -462 -8 -531 -1 -528 8 -26 -89 168 -33 317 -61 330 -64 12 -2 86 -17 164
-32 l141 -27 47 -71 c26 -39 57 -84 69 -101 127 -171 172 -231 177 -235 3 -3
17 -21 30 -40 23 -35 32 -46 67 -85 10 -12 31 -39 48 -60 16 -22 34 -45 40
-51 9 -9 40 -46 112 -130 209 -245 556 -594 793 -799 30 -26 60 -52 65 -59 6
-6 28 -24 50 -41 22 -16 45 -34 50 -40 6 -7 46 -41 90 -76 44 -35 85 -68 92
-74 25 -20 39 -31 103 -79 36 -27 67 -53 68 -58 2 -4 10 -8 18 -8 8 0 14 -4
14 -8 0 -4 15 -16 33 -27 17 -10 34 -22 37 -25 11 -16 352 -244 479 -322 30
-18 66 -40 80 -49 68 -43 231 -136 396 -226 69 -38 328 -166 430 -213 141 -65
173 -79 305 -134 818 -336 1641 -531 2565 -608 171 -14 915 -17 1130 -5 501
29 1208 142 1600 257 17 5 48 13 70 19 254 66 670 206 910 306 44 18 116 47
160 65 44 18 104 45 132 61 29 16 54 29 55 28 19 -5 413 192 583 291 28 16 60
34 71 39 39 17 292 170 306 185 8 7 24 17 36 20 12 4 22 12 22 17 0 5 5 9 10
9 9 0 118 67 130 80 3 3 26 19 52 35 27 17 48 33 48 38 0 4 5 7 11 7 14 0 204
135 239 170 14 13 28 25 32 25 16 0 305 230 361 287 21 21 40 38 43 38 12 0
69 53 67 62 -2 4 1 7 6 5 14 -3 238 201 423 387 168 169 397 419 368 401 -8
-5 8 14 35 41 57 55 184 208 292 353 40 53 76 101 81 106 76 93 324 460 431
637 29 49 49 93 45 99 -4 8 -3 9 5 5 6 -4 14 0 18 11 4 10 9 20 13 23 13 11
51 83 46 88 -3 3 1 10 8 16 12 9 176 301 176 313 0 2 38 82 84 176 46 95 105
224 131 287 27 63 59 138 71 166 13 28 33 77 44 110 12 32 28 73 35 89 28 64
169 486 179 534 2 9 6 23 9 31 3 8 15 49 27 90 11 41 25 89 30 105 64 211 162
695 209 1035 18 131 49 412 49 450 0 8 6 83 12 165 16 190 17 830 1 1040 -73
1008 -277 1865 -655 2750 -26 61 -52 114 -57 120 -5 5 -9 17 -9 26 0 10 -6 24
-12 31 -7 7 -14 20 -16 28 -5 28 -234 480 -243 480 -5 0 -8 3 -7 8 3 10 -51
112 -68 130 -8 7 -14 18 -14 23 0 10 -98 179 -109 189 -8 7 -28 39 -47 77 -9
18 -22 37 -30 44 -8 6 -14 18 -14 25 0 8 -4 14 -10 14 -5 0 -10 5 -10 10 0 12
-68 112 -82 121 -5 3 -9 8 -7 10 4 6 -53 93 -62 97 -5 2 -9 8 -9 13 0 12 -109
163 -121 167 -5 2 -9 8 -9 13 0 8 -64 100 -98 139 -6 8 -42 53 -79 100 -132
168 -257 316 -408 480 -256 280 -860 840 -887 824 -4 -3 -8 -1 -8 5 0 8 -39
42 -125 109 -123 96 -172 132 -177 132 -4 0 -22 14 -40 30 -18 17 -38 30 -45
30 -7 0 -13 5 -13 10 0 6 -4 10 -10 10 -5 0 -21 10 -34 21 -14 12 -33 27 -44
33 -11 6 -46 29 -78 51 -32 22 -71 48 -87 58 -16 10 -36 24 -44 32 -8 8 -20
15 -28 15 -7 0 -15 4 -17 9 -4 11 -212 141 -226 141 -6 0 -12 4 -14 8 -3 8
-51 36 -243 144 -38 22 -113 60 -165 85 -52 26 -96 50 -98 55 -2 4 -8 8 -13 8
-4 0 -46 18 -91 41 -102 50 -299 140 -313 143 -5 1 -20 7 -32 14 -31 17 -371
152 -383 152 -6 0 -18 4 -28 10 -28 17 -206 77 -407 140 -569 177 -1173 292
-1805 346 -175 14 -851 26 -1015 18z"/>
</g>
</svg>
